<svg width="20" height="20" viewBox="0 0 20 20" fill="none" xmlns="http://www.w3.org/2000/svg">
<path d="M14.9993 6.66663H8.33268C7.41221 6.66663 6.66602 7.41282 6.66602 8.33329V15C6.66602 15.9204 7.41221 16.6666 8.33268 16.6666H14.9993C15.9198 16.6666 16.666 15.9204 16.666 15V8.33329C16.666 7.41282 15.9198 6.66663 14.9993 6.66663Z" stroke="white" stroke-linecap="round" stroke-linejoin="round"/>
<path d="M13.334 6.66671V5.00004C13.334 4.55801 13.1584 4.13409 12.8458 3.82153C12.5333 3.50897 12.1093 3.33337 11.6673 3.33337H5.00065C4.55862 3.33337 4.1347 3.50897 3.82214 3.82153C3.50958 4.13409 3.33398 4.55801 3.33398 5.00004V11.6667C3.33398 12.1087 3.50958 12.5327 3.82214 12.8452C4.1347 13.1578 4.55862 13.3334 5.00065 13.3334H6.66732" stroke="white" stroke-linecap="round" stroke-linejoin="round"/>
</svg>
